<?xml version="1.0" standalone="no"?>
<!DOCTYPE svg PUBLIC "-//W3C//DTD SVG 20010904//EN"
 "http://www.w3.org/TR/2001/REC-SVG-20010904/DTD/svg10.dtd">
<svg version="1.0" xmlns="http://www.w3.org/2000/svg"
 width="240.000000pt" height="240.000000pt" viewBox="0 0 240.000000 240.000000"
 preserveAspectRatio="xMidYMid meet">
<metadata>
Created by potrace 1.14, written by Peter Selinger 2001-2017
</metadata>
<g transform="translate(0.000000,240.000000) scale(0.100000,-0.100000)"
fill="#000000" stroke="none">
<path d="M1103 2259 c-30 -9 -102 -45 -178 -89 -16 -10 -61 -35 -100 -55 -38
-21 -92 -50 -120 -65 -27 -15 -90 -49 -140 -75 -49 -27 -116 -63 -148 -80 -93
-51 -142 -98 -179 -172 l-33 -68 0 -460 0 -460 27 -57 c36 -77 94 -132 208
-198 52 -30 137 -80 188 -112 51 -32 97 -58 103 -58 5 0 9 -4 9 -10 0 -5 4
-10 9 -10 6 0 49 -24 98 -54 164 -100 251 -138 324 -144 43 -3 84 1 120 11 56
17 247 123 474 265 72 44 177 109 235 143 208 123 201 98 198 693 l-3 461 -28
48 c-16 27 -49 63 -74 80 -66 47 -412 257 -423 257 -6 0 -10 5 -10 10 0 6 -4
10 -9 10 -5 0 -56 27 -113 61 -161 95 -190 110 -238 125 -51 16 -149 17 -197
3z"/>
</g>
</svg>
